<?xml version="1.0" encoding="UTF-8"?>
<svg width="700pt" height="700pt" version="1.1" viewBox="0 0 700 700" >
 <g>
  <path d="m297.17 280-207.92-207.92c-14.578-14.578-14.578-38.25 0-52.828 14.582-14.582 38.25-14.582 52.836 0l207.91 207.91 207.92-207.92c14.578-14.578 38.25-14.578 52.828 0.003906 14.582 14.578 14.582 38.25 0 52.828l-207.91 207.92 207.91 207.91c14.582 14.578 14.582 38.25 0 52.828-14.578 14.582-38.25 14.582-52.828 0l-207.92-207.91-207.91 207.91c-14.582 14.582-38.25 14.582-52.836 0-14.578-14.578-14.578-38.25 0-52.828l207.92-207.91z" fill-rule="evenodd"/>

 </g>
</svg>
