<?xml version="1.0" encoding="UTF-8"?>
<svg width="700pt" height="700pt" version="1.1" viewBox="0 0 700 700" >

 <g>
  <path d="m546.4 169c-17.84 143.25-148.43 273.84-291.68 291.69-8.707 1.0664-17.465 1.6953-26.234 1.8828 43.453 36.777 99.137 55.879 156.02 53.52 56.875-2.3633 110.79-26.016 151.04-66.27 40.254-40.254 63.906-94.164 66.27-151.04 2.3594-56.879-16.742-112.57-53.52-156.02-0.1875 8.7695-0.81641 17.527-1.8867 26.234z"/>
  <path d="m302.4 216.38 56.102-33.418 56.102 33.418-14.449-63.684 49.125-43.027-65.035-5.9375-25.742-60.008-25.738 60.008-65.031 5.9375 49.117 43.027z"/>
  <path d="m278.03 387.38 33.25-19.809 33.246 19.809-8.5625-37.738 29.109-25.504-38.539-3.5156-15.254-35.566-15.254 35.566-38.543 3.5156 29.109 25.504z"/>
  <path d="m118.6 322.89 33.344-19.855 33.336 19.855-8.5859-37.844 29.188-25.57-38.645-3.5273-15.293-35.66-15.301 35.66-38.645 3.5273 29.191 25.57z"/>

 </g>
</svg>
