<?xml version="1.0" encoding="UTF-8"?>
<svg width="700pt" height="700pt" version="1.1" viewBox="0 0 700 700" >
 
 <g>
  <path d="m409.85 130.38c-2.1367-76.945-55.574-47.023-32.062-130.38-49.16 25.648-91.91 70.535-83.359 128.25 36.336-12.824 79.082-12.824 115.42 2.1367z" fill-rule="evenodd"/>
  <path d="m497.48 215.88c53.434-55.574-4.2734-72.672 70.535-115.42-53.434-17.098-115.42-12.824-149.62 34.199 36.336 14.961 64.121 44.887 79.082 81.223z" fill-rule="evenodd"/>
  <path d="m501.75 339.85c74.809-2.1367 47.023-55.574 128.25-32.062-23.512-49.16-70.535-91.91-128.25-83.359 14.961 36.336 14.961 79.082 0 115.42z" fill-rule="evenodd"/>
  <path d="m416.26 427.48c53.434 53.434 70.535-4.2734 113.28 70.535 17.098-53.434 12.824-115.42-32.062-149.62-17.098 36.336-44.887 64.121-81.223 79.082z" fill-rule="evenodd"/>
  <path d="m292.29 431.75c0 74.809 53.434 47.023 29.922 128.25 51.297-23.512 91.91-70.535 83.359-128.25-36.336 14.961-76.945 14.961-113.28 0z" fill-rule="evenodd"/>
  <path d="m202.52 346.26c-53.434 53.434 4.2734 70.535-70.535 113.28 53.434 17.098 115.42 12.824 151.75-32.062-36.336-17.098-66.258-44.887-81.223-81.223z" fill-rule="evenodd"/>
  <path d="m200.38 222.29c-76.945 0-47.023 53.434-130.38 29.922 25.648 51.297 70.535 91.91 128.25 83.359-12.824-36.336-12.824-76.945 2.1367-113.28z" fill-rule="evenodd"/>
  <path d="m285.88 132.52c-55.574-53.434-72.672 4.2734-115.42-70.535-17.098 53.434-12.824 115.42 34.199 151.75 14.961-36.336 44.887-66.258 81.223-81.223z" fill-rule="evenodd"/>
  <path d="m350 134.66c81.223 0 145.34 66.258 145.34 145.34 0 81.223-64.121 145.34-145.34 145.34-79.082 0-145.34-64.121-145.34-145.34 0-79.082 66.258-145.34 145.34-145.34zm-55.574 85.496c14.961 0 25.648 12.824 25.648 27.785s-10.688 27.785-25.648 27.785c-14.961 0-27.785-12.824-27.785-27.785s12.824-27.785 27.785-27.785zm113.28 0c-14.961 0-27.785 12.824-27.785 27.785s12.824 27.785 27.785 27.785c14.961 0 25.648-12.824 25.648-27.785s-10.688-27.785-25.648-27.785zm-132.52 106.87c49.16 32.062 100.46 32.062 149.62 0 8.5508-4.2734 8.5508-2.1367 0 8.5508-40.609 49.16-106.87 49.16-149.62 0-8.5508-10.688-6.4141-12.824 0-8.5508z" fill-rule="evenodd"/>
  
 </g>
</svg>
